<?xml version="1.0" encoding="UTF-8"?>
<svg version="1.1" xmlns="http://www.w3.org/2000/svg" width="500" height="500">
<path d="M0 0 C165 0 330 0 500 0 C500 165 500 330 500 500 C335 500 170 500 0 500 C0 335 0 170 0 0 Z " fill="#3FB784" transform="translate(0,0)"/>
<path d="M0 0 C1.1859375 0.00451172 2.371875 0.00902344 3.59375 0.01367188 C6.47922228 0.02530684 9.36458213 0.0416516 12.25 0.0625 C12.25 1.3825 12.25 2.7025 12.25 4.0625 C13.57 4.0625 14.89 4.0625 16.25 4.0625 C16.91 2.7425 17.57 1.4225 18.25 0.0625 C22.54 0.0625 26.83 0.0625 31.25 0.0625 C31.745 2.5375 31.745 2.5375 32.25 5.0625 C33.57 5.0625 34.89 5.0625 36.25 5.0625 C36.68813908 18.45008304 35.3803528 31.7357607 34.25 45.0625 C35.9 45.0625 37.55 45.0625 39.25 45.0625 C41.10040076 33.66481872 41.85903656 22.22136555 42.55224609 10.7043457 C42.66753662 8.85909302 42.66753662 8.85909302 42.78515625 6.9765625 C42.850979 5.8623291 42.91680176 4.7480957 42.98461914 3.60009766 C43.25 1.0625 43.25 1.0625 44.25 0.0625 C46.43639453 -0.01008946 48.62500389 -0.02123783 50.8125 0 C52.60880859 0.01353516 52.60880859 0.01353516 54.44140625 0.02734375 C55.36824219 0.03894531 56.29507813 0.05054688 57.25 0.0625 C57.2997158 5.32778574 57.33586827 10.59293254 57.35986328 15.85839844 C57.36987439 17.64683413 57.38348733 19.43525366 57.40087891 21.22363281 C57.42534362 23.80537934 57.43653221 26.38690804 57.4453125 28.96875 C57.45563507 29.75866333 57.46595764 30.54857666 57.47659302 31.36242676 C57.47821899 39.5447386 55.70996164 47.10929591 51.25 54.0625 C45.58756456 59.72493544 40.04634549 61.26023964 32.25 61.5 C26.26874881 61.33491239 22.75349631 61.07648584 18.25 57.0625 C14.47134532 50.89126145 13.68602121 45.23474261 13.9375 38.125 C13.95296875 37.25198242 13.9684375 36.37896484 13.984375 35.47949219 C14.11525749 29.63558906 14.47709919 23.85925608 15.25 18.0625 C14.45335937 18.37960938 13.65671875 18.69671875 12.8359375 19.0234375 C8.46862361 20.2889119 4.39719822 20.5144015 -0.125 20.6875 C-0.95644531 20.72617188 -1.78789063 20.76484375 -2.64453125 20.8046875 C-4.67935156 20.89824246 -6.71464416 20.98142713 -8.75 21.0625 C-8.75 22.7125 -8.75 24.3625 -8.75 26.0625 C-3.47 26.0625 1.81 26.0625 7.25 26.0625 C7.25 27.3825 7.25 28.7025 7.25 30.0625 C8.57 30.0625 9.89 30.0625 11.25 30.0625 C11.25 34.6825 11.25 39.3025 11.25 44.0625 C4.65 45.0525 -1.95 46.0425 -8.75 47.0625 C-9.08 53.3325 -9.41 59.6025 -9.75 66.0625 C-14.7 66.0625 -19.65 66.0625 -24.75 66.0625 C-24.75 64.4125 -24.75 62.7625 -24.75 61.0625 C-26.07 61.0625 -27.39 61.0625 -28.75 61.0625 C-28.96425032 45.57879437 -28.89171642 30.20029556 -27.8125 14.75 C-27.72564941 13.49356689 -27.63879883 12.23713379 -27.54931641 10.94262695 C-26.88828692 2.20078692 -26.88828692 2.20078692 -25.75 1.0625 C-17.21989514 -0.13443033 -8.59347915 -0.06318735 0 0 Z " fill="#000302" transform="translate(90.75,223.9375)"/>
<path d="M0 0 C3.86665297 3.55930363 4.74424548 6.42084324 5.0859375 11.58984375 C4.95526089 18.00170963 2.22292015 22.32656547 -1.4765625 27.40234375 C-0.8165625 28.16546875 -0.1565625 28.92859375 0.5234375 29.71484375 C3.54452803 34.27884837 3.24759324 39.13914994 2.5234375 44.40234375 C1.18089274 49.1767189 -0.739038 52.28898176 -5.0390625 54.83984375 C-9.66155547 56.94097692 -12.81662802 57.53021446 -17.859375 57.53515625 C-19.10847656 57.53644531 -20.35757812 57.53773438 -21.64453125 57.5390625 C-23.60326172 57.53326172 -23.60326172 57.53326172 -25.6015625 57.52734375 C-26.91511719 57.53121094 -28.22867188 57.53507812 -29.58203125 57.5390625 C-31.45181641 57.53712891 -31.45181641 57.53712891 -33.359375 57.53515625 C-34.50809082 57.53402832 -35.65680664 57.53290039 -36.84033203 57.53173828 C-39.4765625 57.40234375 -39.4765625 57.40234375 -40.4765625 56.40234375 C-40.43600874 53.76323006 -40.32485671 51.16024854 -40.1640625 48.52734375 C-40.11628662 47.70032959 -40.06851074 46.87331543 -40.01928711 46.02124023 C-39.84766115 43.14761908 -39.66360237 40.27500248 -39.4765625 37.40234375 C-39.36973145 35.74307861 -39.36973145 35.74307861 -39.26074219 34.05029297 C-39.02904784 30.52114444 -38.78605451 26.99295277 -38.5390625 23.46484375 C-38.46453857 22.35318848 -38.39001465 21.2415332 -38.31323242 20.09619141 C-37.78029654 12.77444716 -36.81025836 5.62090137 -35.4765625 -1.59765625 C-7.39831332 -5.63458039 -7.39831332 -5.63458039 0 0 Z " fill="#010302" transform="translate(281.4765625,227.59765625)"/>
<path d="M0 0 C0.81573486 -0.01740234 1.63146973 -0.03480469 2.47192383 -0.05273438 C7.47326047 -0.04864288 10.93356653 0.51797013 15.25 3.3125 C19.3479279 8.38098976 19.9258126 12.78017988 19.70703125 19.23828125 C18.66547485 26.24430594 15.34536294 31.52198784 10.25 36.3125 C10.83910156 37.34890625 11.42820312 38.3853125 12.03515625 39.453125 C12.79491194 40.82256118 13.55399143 42.19237267 14.3125 43.5625 C14.70244141 44.24441406 15.09238281 44.92632812 15.49414062 45.62890625 C16.04038086 46.62470703 16.04038086 46.62470703 16.59765625 47.640625 C16.93804932 48.2480957 17.27844238 48.85556641 17.62915039 49.48144531 C18.42516609 51.82911253 18.15807288 53.02805488 17.25 55.3125 C14.96484375 57.015625 14.96484375 57.015625 12.1875 58.5625 C11.26839844 59.08328125 10.34929687 59.6040625 9.40234375 60.140625 C8.69207031 60.52734375 7.98179687 60.9140625 7.25 61.3125 C3.62539613 58.89609742 2.47911798 56.18555954 0.6875 52.375 C-0.98006549 48.89470939 -2.60263962 45.53354057 -4.75 42.3125 C-6.4 42.3125 -8.05 42.3125 -9.75 42.3125 C-9.75 48.2525 -9.75 54.1925 -9.75 60.3125 C-14.37 60.3125 -18.99 60.3125 -23.75 60.3125 C-23.98766521 47.61061483 -23.68866226 34.98791105 -22.875 22.3125 C-22.75729248 20.37286377 -22.75729248 20.37286377 -22.63720703 18.39404297 C-22.55325684 17.17088379 -22.46930664 15.94772461 -22.3828125 14.6875 C-22.30949707 13.60210937 -22.23618164 12.51671875 -22.16064453 11.3984375 C-21.73111127 8.17055381 -20.87558736 5.36137111 -19.75 2.3125 C-13.12645813 0.57517754 -6.81555417 0.0680182 0 0 Z " fill="#020402" transform="translate(412.75,223.6875)"/>
<path d="M0 0 C1.13050781 -0.06058594 2.26101563 -0.12117187 3.42578125 -0.18359375 C7.16770846 0.52894089 8.25301097 1.74074462 10.55647278 4.67723083 C12.38444609 7.52218893 13.04991493 10.39204349 13.79296875 13.671875 C13.95169968 14.36142273 14.1104306 15.05097046 14.27397156 15.76141357 C15.95667001 23.25301948 17.32778469 30.80894947 18.60766602 38.37841797 C19.00713642 40.7295014 19.42211059 43.07753318 19.83789062 45.42578125 C20.09727682 46.93473752 20.35577528 48.44384673 20.61328125 49.953125 C20.73713699 50.64786926 20.86099274 51.34261353 20.98860168 52.05841064 C21.59032962 55.6970756 21.60363203 57.77297188 20.6875 61.4375 C15.4075 61.4375 10.1275 61.4375 4.6875 61.4375 C4.1925 55.4975 4.1925 55.4975 3.6875 49.4375 C-0.9325 50.0975 -5.5525 50.7575 -10.3125 51.4375 C-10.5290625 53.6340625 -10.5290625 53.6340625 -10.75 55.875 C-11.1875 60.3125 -11.1875 60.3125 -12.3125 61.4375 C-15.01358504 61.346584 -17.68180311 61.20009234 -20.375 61 C-21.13361328 60.94779297 -21.89222656 60.89558594 -22.67382812 60.84179688 C-24.55371722 60.71174165 -26.43315685 60.57521962 -28.3125 60.4375 C-27.06706716 52.18070334 -24.92855611 44.46255248 -22.25 36.5625 C-21.66206665 34.81477295 -21.66206665 34.81477295 -21.06225586 33.03173828 C-18.42791282 25.34426063 -15.55940647 17.78881874 -12.375 10.3125 C-11.99786865 9.42449707 -11.6207373 8.53649414 -11.23217773 7.62158203 C-8.41710475 1.20929326 -7.26368213 0.27146264 0 0 Z " fill="#020402" transform="translate(363.3125,223.5625)"/>
<path d="M0 0 C0.02685412 2.31243792 0.04632841 4.6249627 0.0625 6.9375 C0.07410156 8.22527344 0.08570313 9.51304687 0.09765625 10.83984375 C0 14 0 14 -1 15 C-2.34049604 15.22598472 -3.69090293 15.39402959 -5.04296875 15.53515625 C-5.86990234 15.62216797 -6.69683594 15.70917969 -7.54882812 15.79882812 C-8.41958984 15.88583984 -9.29035156 15.97285156 -10.1875 16.0625 C-11.03892578 16.15337891 -11.89035156 16.24425781 -12.76757812 16.33789062 C-17.19908139 16.79372197 -21.5381281 17.10953859 -26 17 C-26 19.31 -26 21.62 -26 24 C-25.38253906 23.9278125 -24.76507813 23.855625 -24.12890625 23.78125 C-18.37891613 23.1511141 -12.78353441 22.90671719 -7 23 C-5.82753229 27.09902098 -5.92923938 30.75436258 -6 35 C-10.38246576 37.05725217 -14.56094358 37.60695721 -19.3125 38.125 C-20.05306641 38.21136719 -20.79363281 38.29773438 -21.55664062 38.38671875 C-23.37038435 38.59734705 -25.18510543 38.79952986 -27 39 C-27 41.31 -27 43.62 -27 46 C-18.75 46 -10.5 46 -2 46 C-2 50.62 -2 55.24 -2 60 C-33.39320668 62.64363846 -33.39320668 62.64363846 -42 62 C-43 61 -43 61 -43.13061523 58.50341797 C-43.10437965 49.17296947 -42.72672104 39.88935118 -42.20043945 30.57519531 C-42.0615244 28.10767057 -41.92978601 25.63983357 -41.79882812 23.171875 C-41.71135855 21.57549771 -41.6234825 19.97914262 -41.53515625 18.3828125 C-41.49656998 17.65869171 -41.4579837 16.93457092 -41.41822815 16.18850708 C-41.14420817 11.42352166 -40.6349548 6.7307621 -40 2 C-13.24874212 -0.38776806 -13.24874212 -0.38776806 0 0 Z " fill="#010302" transform="translate(332,223)"/>
<path d="M0 0 C2.55057036 3.82585554 2.51454167 5.44263092 2 10 C-1.40314777 17.68119386 -6.63521398 24.62807863 -11.3125 31.5625 C-12.06087291 32.67751561 -12.80892199 33.79274865 -13.55664062 34.90820312 C-15.36793434 37.60761505 -17.18244281 40.30480318 -19 43 C-17.5581345 42.86012455 -16.11682773 42.71448155 -14.67578125 42.56640625 C-13.87309814 42.48592041 -13.07041504 42.40543457 -12.2434082 42.32250977 C-9.61779331 41.94505441 -7.42946387 41.0411988 -5 40 C-3.68 40 -2.36 40 -1 40 C-1 45.28 -1 50.56 -1 56 C-11.25582573 58.90430463 -21.24970471 61.72817986 -32 60 C-34.57345399 58.49533549 -36.88698304 57.11301696 -39 55 C-40.14097475 43.01976509 -33.19428566 34.41739215 -26.6875 24.875 C-25.71973633 23.44027344 -25.71973633 23.44027344 -24.73242188 21.9765625 C-23.16022984 19.64738912 -21.58272928 17.32201992 -20 15 C-20.97582031 15.2165625 -21.95164063 15.433125 -22.95703125 15.65625 C-24.22933594 15.9346875 -25.50164062 16.213125 -26.8125 16.5 C-28.07707031 16.7784375 -29.34164062 17.056875 -30.64453125 17.34375 C-34 18 -34 18 -37 18 C-37.02684679 15.35409986 -37.04676357 12.70846904 -37.0625 10.0625 C-37.07087891 9.30775391 -37.07925781 8.55300781 -37.08789062 7.77539062 C-37.09652441 5.85005687 -37.05224333 3.92464419 -37 2 C-31.38458063 -3.61541937 -6.50055411 -4.10922977 0 0 Z " fill="#000202" transform="translate(191,225)"/>
<path d="M0 0 C2.55057036 3.82585554 2.51454167 5.44263092 2 10 C-1.40314777 17.68119386 -6.63521398 24.62807863 -11.3125 31.5625 C-12.06087291 32.67751561 -12.80892199 33.79274865 -13.55664062 34.90820312 C-15.36793434 37.60761505 -17.18244281 40.30480318 -19 43 C-17.5581345 42.86012455 -16.11682773 42.71448155 -14.67578125 42.56640625 C-13.87309814 42.48592041 -13.07041504 42.40543457 -12.2434082 42.32250977 C-9.61779331 41.94505441 -7.42946387 41.0411988 -5 40 C-3.68 40 -2.36 40 -1 40 C-1 45.28 -1 50.56 -1 56 C-11.25582573 58.90430463 -21.24970471 61.72817986 -32 60 C-34.57345399 58.49533549 -36.88698304 57.11301696 -39 55 C-39.2734375 53.03125 -39.2734375 53.03125 -39.375 50.5 C-39.42398438 49.6853125 -39.47296875 48.870625 -39.5234375 48.03125 C-38.06187575 39.56728049 -31.39900364 31.91013721 -26.6875 24.9375 C-26.04232422 23.97650391 -25.39714844 23.01550781 -24.73242188 22.02539062 C-23.15812107 19.68143166 -21.58060747 17.33970869 -20 15 C-20.97582031 15.2165625 -21.95164063 15.433125 -22.95703125 15.65625 C-24.22933594 15.9346875 -25.50164062 16.213125 -26.8125 16.5 C-28.07707031 16.7784375 -29.34164062 17.056875 -30.64453125 17.34375 C-34 18 -34 18 -37 18 C-37.02684679 15.35409986 -37.04676357 12.70846904 -37.0625 10.0625 C-37.07087891 9.30775391 -37.07925781 8.55300781 -37.08789062 7.77539062 C-37.09652441 5.85005687 -37.05224333 3.92464419 -37 2 C-31.38458063 -3.61541937 -6.50055411 -4.10922977 0 0 Z " fill="#000202" transform="translate(236,225)"/>
<path d="M0 0 C0.33 0 0.66 0 1 0 C1 4.95 1 9.9 1 15 C3.0625 14.505 5.125 14.01 7.25 13.5 C11.03203607 12.59231134 14.09381001 12 18 12 C16.65091666 15.7585194 14.95122187 18.69858636 12.59375 21.9140625 C11.93246094 22.84089844 11.27117187 23.76773438 10.58984375 24.72265625 C9.20770535 26.64214939 7.81460738 28.55380308 6.41015625 30.45703125 C1.88308636 36.85493703 -0.3213777 42.16724987 -1 50 C-1.33 50 -1.66 50 -2 50 C-2.33 52.64 -2.66 55.28 -3 58 C-12.20133734 61.57829786 -26.61829599 64.88730858 -36.1171875 61.171875 C-38.36105948 59.73322024 -39.80342581 58.39314838 -41 56 C-39.43765625 56.05220703 -39.43765625 56.05220703 -37.84375 56.10546875 C-27.43397678 56.34024808 -18.18641391 55.20246787 -8 53 C-8 47.72 -8 42.44 -8 37 C-9.27875 37.474375 -10.5575 37.94875 -11.875 38.4375 C-16.89037933 40.12789812 -21.74697831 40.64173979 -27 41 C-22.77852026 32.88995294 -17.62017777 25.56579353 -12.26367188 18.171875 C-8.24006774 12.43873956 -5.99098409 7.95827677 -5 1 C-2 2 -2 2 -1 4 C-0.67 2.68 -0.34 1.36 0 0 Z " fill="#30AD8B" transform="translate(198,228)"/>
<path d="M0 0 C3.875 1.875 3.875 1.875 5 3 C6.13246691 9.49281029 5.96764213 15.68737054 5.625 22.25 C5.57609619 23.28962891 5.52719238 24.32925781 5.47680664 25.40039062 C5.32463447 28.60063226 5.16293906 31.80029043 5 35 C4.90191324 37.00518732 4.80424045 39.01039494 4.70703125 41.015625 C4.47920704 45.67750831 4.24233857 50.33884959 4 55 C-6.10885204 58.9546956 -20.5105619 63.32059203 -31.1171875 59.171875 C-33.36105948 57.73322024 -34.80342581 56.39314838 -36 54 C-34.92363281 54.03480469 -33.84726563 54.06960938 -32.73828125 54.10546875 C-24.29352968 54.29179285 -16.76022403 53.90406125 -8.5390625 51.65625 C-6 51 -6 51 -3 51 C-3 45.72 -3 40.44 -3 35 C-4.27875 35.474375 -5.5575 35.94875 -6.875 36.4375 C-11.89037933 38.12789812 -16.74697831 38.64173979 -22 39 C-17.76392695 30.87322007 -12.60134569 23.51805629 -7.26367188 16.08398438 C-3.52794829 10.74245721 -1.05791682 6.4616646 0 0 Z " fill="#3AB183" transform="translate(238,230)"/>
<path d="M0 0 C0.495 1.98 0.495 1.98 1 4 C2.65 3.67 4.3 3.34 6 3 C6 7.95 6 12.9 6 18 C8.0625 17.505 10.125 17.01 12.25 16.5 C16.03203607 15.59231134 19.09381001 15 23 15 C21.66181373 18.66532482 20.01634699 21.69125582 17.8125 24.90625 C17.19632813 25.81503906 16.58015625 26.72382813 15.9453125 27.66015625 C14.6484375 29.55338542 13.3515625 31.44661458 12.0546875 33.33984375 C11.13042969 34.70302734 11.13042969 34.70302734 10.1875 36.09375 C9.62417969 36.91552734 9.06085938 37.73730469 8.48046875 38.58398438 C5.60491466 43.2766762 4.6409344 47.55205759 4 53 C3.01 52.505 3.01 52.505 2 52 C1.731875 52.53109375 1.46375 53.0621875 1.1875 53.609375 C-2.58110696 60.40278492 -6.81059427 62.60353142 -14 65 C-27.4255997 66.01734358 -27.4255997 66.01734358 -31.8125 63.125 C-34 61 -34 61 -35 59 C-33.33324219 59.08701172 -33.33324219 59.08701172 -31.6328125 59.17578125 C-22.86092983 59.49734133 -15.23736188 59.72395908 -8 54 C-1.62092699 46.34511239 -0.88930446 37.9010147 -0.68359375 28.3203125 C-0.66281265 27.50754852 -0.64203156 26.69478455 -0.62062073 25.85739136 C-0.55562421 23.28000743 -0.49647407 20.70252806 -0.4375 18.125 C-0.39426723 16.36978209 -0.35065148 14.61457357 -0.30664062 12.859375 C-0.19999451 8.57301262 -0.09858886 4.28655496 0 0 Z " fill="#11564C" transform="translate(148,225)"/>
<path d="M0 0 C5.92424618 5.77234243 5.92424618 5.77234243 6.1328125 9.15234375 C6.11452786 15.6708178 5.91971428 22.17635562 5.625 28.6875 C5.59422363 29.4705249 5.56344727 30.2535498 5.53173828 31.06030273 C5.12584767 39.0846422 4.30893849 46.65876791 -1 53 C-6.58548683 57.30547943 -10.36825661 58.13033841 -17.296875 58.09765625 C-18.50214844 58.09443359 -19.70742188 58.09121094 -20.94921875 58.08789062 C-22.20347656 58.07951172 -23.45773437 58.07113281 -24.75 58.0625 C-26.01972656 58.05798828 -27.28945313 58.05347656 -28.59765625 58.04882812 C-31.73181836 58.03704556 -34.86588541 58.02059416 -38 58 C-38.33 56.35 -38.66 54.7 -39 53 C-37.98015015 52.98598145 -37.98015015 52.98598145 -36.93969727 52.97167969 C-33.81327105 52.91748724 -30.68826352 52.83393761 -27.5625 52.75 C-26.49322266 52.73582031 -25.42394531 52.72164063 -24.32226562 52.70703125 C-17.62479015 52.50221549 -11.67714197 51.82193308 -6 48 C-1.97096567 43.10535543 -1.38631194 37.83866792 -1.59375 31.6328125 C-2.20248193 27.68776135 -3.70061392 25.23351168 -6 22 C-5.566875 21.50113281 -5.13375 21.00226563 -4.6875 20.48828125 C0.5121587 13.78409167 0.69225654 8.2942589 0 0 Z " fill="#225E40" transform="translate(285,232)"/>
<path d="M0 0 C0.33 1.32 0.66 2.64 1 4 C2.32 4 3.64 4 5 4 C5 8.62 5 13.24 5 18 C-4.9 19.485 -4.9 19.485 -15 21 C-15.33 27.27 -15.66 33.54 -16 40 C-20.95 40 -25.9 40 -31 40 C-31 38.35 -31 36.7 -31 35 C-26.05 34.505 -26.05 34.505 -21 34 C-20.505 25.09 -20.505 25.09 -20 16 C-15.45276349 14.18110539 -11.95490424 13.59398125 -7.1875 13.375 C-6.49462891 13.33632813 -5.80175781 13.29765625 -5.08789062 13.2578125 C-3.39232985 13.16426432 -1.69620288 13.08107636 0 13 C0 8.71 0 4.42 0 0 Z " fill="#0A5252" transform="translate(97,250)"/>
<path d="M0 0 C3.02021717 2.01347811 4.77160682 3.55057269 6 7 C6.9111719 14.41651545 6.44334332 20.85313848 2 27 C0.41780016 28.83320039 -1.18353278 30.38536247 -3 32 C-1.21932681 36.78610208 1.25974979 40.99597096 3.85546875 45.37890625 C5 48 5 48 4.94921875 50.13671875 C3.64418978 52.69844229 2.03340665 53.70674914 -0.375 55.25 C-1.56222656 56.03117187 -1.56222656 56.03117187 -2.7734375 56.828125 C-5 58 -5 58 -8 58 C-8.99 56.02 -9.98 54.04 -11 52 C-7.7 50.02 -4.4 48.04 -1 46 C-1.92958603 41.35206984 -3.41215202 37.82212948 -5.5625 33.6875 C-5.89185547 33.04232422 -6.22121094 32.39714844 -6.56054688 31.73242188 C-7.36824255 30.15214772 -8.18337613 28.57567895 -9 27 C-8.22269531 26.41992188 -7.44539063 25.83984375 -6.64453125 25.2421875 C-2.81150131 21.99232164 -1.23978515 18.84396929 0 14 C0.31193502 9.31107199 0.24021583 4.69088139 0 0 Z " fill="#356731" transform="translate(431,232)"/>
<path d="M0 0 C0.33 0 0.66 0 1 0 C1.13563775 2.22747326 1.23227853 4.45734323 1.3125 6.6875 C1.37050781 7.92886719 1.42851562 9.17023438 1.48828125 10.44921875 C0.86073921 15.01270449 -0.63020059 15.93279482 -4 19 C-6.21829903 21.95215096 -8.22738127 25.03654052 -10.25 28.125 C-10.79140625 28.93582031 -11.3328125 29.74664062 -11.890625 30.58203125 C-14.88574074 35.06749727 -14.88574074 35.06749727 -17 40 C-21.95 40.495 -21.95 40.495 -27 41 C-22.71432211 32.90943593 -17.62992406 25.57924694 -12.26367188 18.171875 C-8.24006774 12.43873956 -5.99098409 7.95827677 -5 1 C-2 2 -2 2 -1 4 C-0.67 2.68 -0.34 1.36 0 0 Z " fill="#175848" transform="translate(198,228)"/>
<path d="M0 0 C3.70862179 3.16005482 4.8281001 5.74466869 6 10.4375 C6.15952148 11.07349121 6.31904297 11.70948242 6.48339844 12.36474609 C7.91318642 18.246944 9.09466204 24.18377769 10.25 30.125 C10.4253125 31.02532959 10.600625 31.92565918 10.78125 32.85327148 C10.94109375 33.70864502 11.1009375 34.56401855 11.265625 35.4453125 C11.40774414 36.20344238 11.54986328 36.96157227 11.69628906 37.74267578 C12.02500139 40.18582224 12.05101437 42.53774281 12 45 C12.66 45 13.32 45 14 45 C14 49.95 14 54.9 14 60 C8.72 60 3.44 60 -2 60 C-2 58.35 -2 56.7 -2 55 C3.445 54.505 3.445 54.505 9 54 C7.48724801 42.58559861 5.75986727 31.28174717 3.41992188 20.00585938 C2.04673946 13.36435842 0.93188641 6.7193915 0 0 Z " fill="#306636" transform="translate(375,230)"/>
<path d="M0 0 C3.875 1.875 3.875 1.875 5 3 C6.09994309 9.03521406 4.64274922 12.08946147 1.28125 17.1796875 C-0.28210232 19.43415594 -1.88614945 21.65651299 -3.5 23.875 C-4.71757071 25.58046423 -5.92978504 27.28950696 -7.13781738 29.0017395 C-8.22874393 30.54300663 -9.33376061 32.07427176 -10.43945312 33.60498047 C-12.18197288 35.80285099 -12.18197288 35.80285099 -12 38 C-16.95 38.495 -16.95 38.495 -22 39 C-17.70109215 30.89277532 -12.61053968 23.53086127 -7.26367188 16.08398438 C-3.52794829 10.74245721 -1.05791682 6.4616646 0 0 Z " fill="#1C5943" transform="translate(238,230)"/>
<path d="M0 0 C0.33 1.32 0.66 2.64 1 4 C2.32 4 3.64 4 5 4 C5.66 3.01 6.32 2.02 7 1 C8.38226016 3.76452033 8.09525387 6.0461363 8.0625 9.125 C8.05347656 10.22070312 8.04445312 11.31640625 8.03515625 12.4453125 C8.02355469 13.28835937 8.01195312 14.13140625 8 15 C7.34 14.01 6.68 13.02 6 12 C5.67 15.3 5.34 18.6 5 22 C4.67 20.68 4.34 19.36 4 18 C3.20335938 18.31710938 2.40671875 18.63421875 1.5859375 18.9609375 C-2.78137639 20.2264119 -6.85280178 20.4519015 -11.375 20.625 C-12.20644531 20.66367188 -13.03789063 20.70234375 -13.89453125 20.7421875 C-15.92935156 20.83574246 -17.96464416 20.91892713 -20 21 C-20 22.65 -20 24.3 -20 26 C-21.65 26 -23.3 26 -25 26 C-24.67 22.7 -24.34 19.4 -24 16 C-20.75052182 15.49639084 -17.50049335 14.99697626 -14.25 14.5 C-13.32960938 14.35691406 -12.40921875 14.21382812 -11.4609375 14.06640625 C-10.12675781 13.86337891 -10.12675781 13.86337891 -8.765625 13.65625 C-7.94868164 13.53056641 -7.13173828 13.40488281 -6.29003906 13.27539062 C-4 13 -4 13 0 13 C0 8.71 0 4.42 0 0 Z " fill="#0B5150" transform="translate(102,224)"/>
<path d="M0 0 C0.495 1.98 0.495 1.98 1 4 C1.804375 4.144375 2.60875 4.28875 3.4375 4.4375 C6 5 6 5 7 6 C7.04080783 7.99958364 7.04254356 10.00045254 7 12 C6.67 12 6.34 12 6 12 C5.67 14.64 5.34 17.28 5 20 C-4.20133734 23.57829786 -18.61829599 26.88730858 -28.1171875 23.171875 C-30.36105948 21.73322024 -31.80342581 20.39314838 -33 18 C-31.43765625 18.05220703 -31.43765625 18.05220703 -29.84375 18.10546875 C-19.43397678 18.34024808 -10.18641391 17.20246787 0 15 C0 10.05 0 5.1 0 0 Z " fill="#175A4A" transform="translate(190,266)"/>
<path d="M0 0 C2.475 0.495 2.475 0.495 5 1 C6.12029814 6.48946087 5.79217969 9.83430559 4 15 C-4.16881182 16.07651009 -12.33604917 16.32434799 -20.5625 16.5625 C-21.96680703 16.60579176 -23.37110406 16.64940904 -24.77539062 16.69335938 C-28.18350951 16.79876511 -31.5916932 16.90088982 -35 17 C-35.33 15.35 -35.66 13.7 -36 12 C-31.50034522 11.66189644 -27.00022839 11.33037391 -22.5 11 C-20.59734375 10.85691406 -20.59734375 10.85691406 -18.65625 10.7109375 C-12.4204271 10.25624208 -6.25261544 9.87368454 0 10 C0 6.7 0 3.4 0 0 Z " fill="#29643E" transform="translate(330,273)"/>
<path d="M0 0 C0.495 1.98 0.495 1.98 1 4 C2.32 4 3.64 4 5 4 C5 9.28 5 14.56 5 20 C-4.54689201 23.18229734 -18.29000447 27.01571781 -28.1171875 23.171875 C-30.36105948 21.73322024 -31.80342581 20.39314838 -33 18 C-31.92363281 18.03480469 -30.84726563 18.06960938 -29.73828125 18.10546875 C-21.29352968 18.29179285 -13.76022403 17.90406125 -5.5390625 15.65625 C-3 15 -3 15 0 15 C0 10.05 0 5.1 0 0 Z " fill="#1D5C45" transform="translate(235,266)"/>
<path d="M0 0 C-1.34284425 3.66066937 -2.98972933 6.73623844 -5.15234375 9.9765625 C-6.06983398 11.35328125 -6.06983398 11.35328125 -7.00585938 12.7578125 C-7.96202148 14.17707031 -7.96202148 14.17707031 -8.9375 15.625 C-9.57107422 16.57890625 -10.20464844 17.5328125 -10.85742188 18.515625 C-13.41382963 22.33276382 -15.73961468 25.73961468 -19 29 C-18.67 20.09 -18.34 11.18 -18 2 C-12.555 1.505 -12.555 1.505 -7 1 C-4 0 -4 0 0 0 Z " fill="#26A590" transform="translate(171,240)"/>
<path d="M0 0 C2.475 0.495 2.475 0.495 5 1 C5 5.29 5 9.58 5 14 C1.04184955 14.50148512 -2.91650401 15.00125646 -6.875 15.5 C-8.00292969 15.64308594 -9.13085938 15.78617188 -10.29296875 15.93359375 C-11.36933594 16.06894531 -12.44570313 16.20429688 -13.5546875 16.34375 C-14.54968262 16.46943359 -15.54467773 16.59511719 -16.56982422 16.72460938 C-19 17 -19 17 -21 17 C-21 17.66 -21 18.32 -21 19 C-22.65 19 -24.3 19 -26 19 C-26 16.69 -26 14.38 -26 12 C-13.625 10.515 -13.625 10.515 -1 9 C-0.67 6.03 -0.34 3.06 0 0 Z " fill="#28613B" transform="translate(332,228)"/>
<path d="M0 0 C0.33 1.32 0.66 2.64 1 4 C2.32 4 3.64 4 5 4 C5.43813908 17.38758304 4.1303528 30.6732607 3 44 C3.99 44.33 4.98 44.66 6 45 C3.125 45.1875 3.125 45.1875 0 45 C-5.21669063 37.17496405 -1.67608279 22.71868699 -1 13.6875 C-0.90322072 12.34964006 -0.80686455 11.01174944 -0.7109375 9.67382812 C-0.47809028 6.44889414 -0.24104741 3.22432962 0 0 Z " fill="#0E514B" transform="translate(122,225)"/>
<path d="M0 0 C0.33 2.31 0.66 4.62 1 7 C-2.3 7 -5.6 7 -9 7 C-9.66 10.3 -10.32 13.6 -11 17 C-15.95 17 -20.9 17 -26 17 C-26.33 15.35 -26.66 13.7 -27 12 C-28.32 11.67 -29.64 11.34 -31 11 C-26.05 11 -21.1 11 -16 11 C-15.34 8.03 -14.68 5.06 -14 2 C-12.4176994 1.66179834 -10.83410625 1.32964061 -9.25 1 C-8.36828125 0.814375 -7.4865625 0.62875 -6.578125 0.4375 C-4 0 -4 0 0 0 Z " fill="#2D6439" transform="translate(367,273)"/>
<path d="M0 0 C2.475 0.495 2.475 0.495 5 1 C5 4.63 5 8.26 5 12 C-2.19414409 14.87765763 -8.36092348 15.1358729 -16 15 C-16 15.99 -16 16.98 -16 18 C-17.65 18 -19.3 18 -21 18 C-21 15.69 -21 13.38 -21 11 C-18.63020833 10.52604167 -16.26041667 10.05208333 -13.890625 9.578125 C-12.93671875 9.38734375 -11.9828125 9.1965625 -11 9 C-8.27864583 8.45572917 -5.55729167 7.91145833 -2.8359375 7.3671875 C-2.23007812 7.24601562 -1.62421875 7.12484375 -1 7 C-0.67 4.69 -0.34 2.38 0 0 Z " fill="#28623C" transform="translate(326,251)"/>
<path d="M0 0 C1.1875 2.5625 1.1875 2.5625 2 5 C1.01 5 0.02 5 -1 5 C-1 10.94 -1 16.88 -1 23 C-5.95 23 -10.9 23 -16 23 C-16 21.35 -16 19.7 -16 18 C-12.7 18 -9.4 18 -6 18 C-6 12.06 -6 6.12 -6 0 C-3 -1 -3 -1 0 0 Z " fill="#336634" transform="translate(409,266)"/>
<path d="M0 0 C5.95865187 5.80586592 5.95865187 5.80586592 6.09765625 9.8203125 C6.08605469 10.91085938 6.07445312 12.00140625 6.0625 13.125 C6.05347656 14.22070312 6.04445313 15.31640625 6.03515625 16.4453125 C6.02355469 17.28835937 6.01195312 18.13140625 6 19 C5.34 19 4.68 19 4 19 C3.566875 20.11375 3.566875 20.11375 3.125 21.25 C2 24 2 24 0.8125 26.1875 C0.544375 26.785625 0.27625 27.38375 0 28 C0.33 28.66 0.66 29.32 1 30 C-3.39158329 28.5361389 -3.87947433 26.02168662 -6 22 C-5.566875 21.50113281 -5.13375 21.00226563 -4.6875 20.48828125 C0.5121587 13.78409167 0.69225654 8.2942589 0 0 Z " fill="#235D3E" transform="translate(285,232)"/>
<path d="M0 0 C1 1 1 1 1.3125 3.75 C0.9248155 7.7819188 -0.12107204 9.19888091 -3 12 C-6.383407 13.77628868 -8.08934069 14 -12 14 C-11.67 10.04 -11.34 6.08 -11 2 C-7.19975907 0.58595686 -4.07077118 -0.34892324 0 0 Z " fill="#326532" transform="translate(416,237)"/>
<path d="M0 0 C3.3 0 6.6 0 10 0 C10 5 10 5 7.875 7.25 C4.80927569 9.11609306 2.54647066 9.67009575 -1 10 C-0.67 6.7 -0.34 3.4 0 0 Z " fill="#226144" transform="translate(259,239)"/>
<path d="M0 0 C1 1 1 1 1.3125 3.375 C1 6 1 6 -0.625 7.75 C-3.41669464 9.21931297 -5.88070914 9.64553513 -9 10 C-9 7.03 -9 4.06 -9 1 C-5.78419562 -0.07193479 -3.36629251 -0.14636054 0 0 Z " fill="#215F42" transform="translate(266,261)"/>
<path d="M0 0 C4.82459313 3.61844485 4.82459313 3.61844485 6 7 C6.23046875 9.91015625 6.23046875 9.91015625 6.1875 13.0625 C6.18105469 14.10535156 6.17460937 15.14820313 6.16796875 16.22265625 C6 19 6 19 5 22 C4.34 22 3.68 22 3 22 C3 19.36 3 16.72 3 14 C2.34 14 1.68 14 1 14 C0.67 9.38 0.34 4.76 0 0 Z " fill="#3C7336" transform="translate(431,232)"/>
<path d="M0 0 C-2.15617433 6.13680387 -2.15617433 6.13680387 -5 8 C-8.6875 8.1875 -8.6875 8.1875 -12 8 C-12.66 6.02 -13.32 4.04 -14 2 C-12.4176994 1.66179834 -10.83410625 1.32964061 -9.25 1 C-8.36828125 0.814375 -7.4865625 0.62875 -6.578125 0.4375 C-4 0 -4 0 0 0 Z " fill="#1A5C48" transform="translate(216,240)"/>
<path d="M0 0 C-2.15617433 6.13680387 -2.15617433 6.13680387 -5 8 C-8.6875 8.1875 -8.6875 8.1875 -12 8 C-12 6.35 -12 4.7 -12 3 C-12.66 2.67 -13.32 2.34 -14 2 C-12.4176994 1.66179834 -10.83410625 1.32964061 -9.25 1 C-8.36828125 0.814375 -7.4865625 0.62875 -6.578125 0.4375 C-4 0 -4 0 0 0 Z " fill="#14574A" transform="translate(171,240)"/>
<path d="M0 0 C1.79275866 3.11910856 2.34290718 5.67682428 2.625 9.25 C2.69976562 10.14203125 2.77453125 11.0340625 2.8515625 11.953125 C2.90054687 12.62859375 2.94953125 13.3040625 3 14 C0.69 14 -1.62 14 -4 14 C-3.79503906 13.32453125 -3.59007812 12.6490625 -3.37890625 11.953125 C-3.10949219 11.06109375 -2.84007812 10.1690625 -2.5625 9.25 C-2.16224609 7.92742187 -2.16224609 7.92742187 -1.75390625 6.578125 C-1.11531506 4.39434165 -0.53224167 2.21164502 0 0 Z " fill="#2C6136" transform="translate(362,246)"/>
<path d="M0 0 C0.33 0 0.66 0 1 0 C0.67 4.95 0.34 9.9 0 15 C-4 10 -4 10 -4 6 C-2.0625 2.75 -2.0625 2.75 0 0 Z " fill="#45B478" transform="translate(289,251)"/>
<path d="M0 0 C0.99 0.66 1.98 1.32 3 2 C3.1875 4.625 3.1875 4.625 3 7 C3.66 7.33 4.32 7.66 5 8 C4.34 8 3.68 8 3 8 C3 10.31 3 12.62 3 15 C2.731875 14.401875 2.46375 13.80375 2.1875 13.1875 C1.01506533 11.02775192 -0.19369282 9.64209744 -2 8 C-1.67 7.236875 -1.34 6.47375 -1 5.6875 C0.17436686 3.00930865 0.17436686 3.00930865 0 0 Z " fill="#0B1D12" transform="translate(302,254)"/>
<path d="M0 0 C-1.26117725 3.88862987 -2.45264167 5.89375599 -6 8 C-6.66 8 -7.32 8 -8 8 C-7.67 5.69 -7.34 3.38 -7 1 C-4.50935112 0.31292445 -2.62113708 0 0 0 Z " fill="#5EBA5D" transform="translate(417,242)"/>
<path d="M0 0 C2.97 0 5.94 0 9 0 C10.07396066 4.29584263 10.07329796 7.60212211 10 12 C9.01 11.67 8.02 11.34 7 11 C7 7.7 7 4.4 7 1 C4.69 1 2.38 1 0 1 C0 0.67 0 0.34 0 0 Z " fill="#061009" transform="translate(316,246)"/>
<path d="M0 0 C2.475 0.495 2.475 0.495 5 1 C5 4.63 5 8.26 5 12 C4.01 11.67 3.02 11.34 2 11 C2 7.7 2 4.4 2 1 C1.34 0.67 0.68 0.34 0 0 Z " fill="#357E4C" transform="translate(326,251)"/>
<path d="M0 0 C0.66 0 1.32 0 2 0 C5.07692308 6.4 5.07692308 6.4 4.6875 9.4375 C4.460625 9.953125 4.23375 10.46875 4 11 C1.29727467 8.12835434 0.05208163 6.69008159 -0.25 2.6875 C-0.1675 1.800625 -0.085 0.91375 0 0 Z " fill="#2D6134" transform="translate(374,270)"/>
<path d="M0 0 C0 2.33333333 0 4.66666667 0 7 C-1.65 7 -3.3 7 -5 7 C-4.625 4.0625 -4.625 4.0625 -4 1 C-2 0 -2 0 0 0 Z " fill="#317A4D" transform="translate(310,262)"/>
<path d="M0 0 C0 2.31 0 4.62 0 7 C-0.66 6.67 -1.32 6.34 -2 6 C-2.66 6.66 -3.32 7.32 -4 8 C-4.33 5.69 -4.66 3.38 -5 1 C-1.125 0 -1.125 0 0 0 Z " fill="#197365" transform="translate(154,228)"/>
<path d="M0 0 C-0.33 0.66 -0.66 1.32 -1 2 C-3.64860427 2.59355614 -6.29197322 2.74209269 -9 3 C-9 2.34 -9 1.68 -9 1 C-6.04335481 -0.4783226 -3.25770263 -0.06032783 0 0 Z " fill="#47AE6D" transform="translate(320,244)"/>
<path d="M0 0 C2.97 0 5.94 0 9 0 C9.33 0.99 9.66 1.98 10 3 C9.34 3 8.68 3 8 3 C7.67 3.99 7.34 4.98 7 6 C7 4.35 7 2.7 7 1 C4.69 1 2.38 1 0 1 C0 0.67 0 0.34 0 0 Z " fill="#1F4B2E" transform="translate(316,246)"/>
</svg>
